<?xml version="1.0" encoding="UTF-8" standalone="no"?>
<!-- Created with Inkscape (http://www.inkscape.org/) -->

<svg
   width="115.9364mm"
   height="356.7778mm"
   viewBox="0 0 115.9364 356.7778"
   version="1.1"
   id="svg1"
   inkscape:version="1.3.2 (091e20e, 2023-11-25, custom)"
   sodipodi:docname="vynilholders_3-2mm.svg"
   xmlns:inkscape="http://www.inkscape.org/namespaces/inkscape"
   xmlns:sodipodi="http://sodipodi.sourceforge.net/DTD/sodipodi-0.dtd"
   xmlns="http://www.w3.org/2000/svg"
   xmlns:svg="http://www.w3.org/2000/svg">
  <sodipodi:namedview
     id="namedview1"
     pagecolor="#ffffff"
     bordercolor="#000000"
     borderopacity="0.25"
     inkscape:showpageshadow="2"
     inkscape:pageopacity="0.0"
     inkscape:pagecheckerboard="0"
     inkscape:deskcolor="#d1d1d1"
     inkscape:document-units="mm"
     inkscape:zoom="0.70710678"
     inkscape:cx="-339.41125"
     inkscape:cy="761.554"
     inkscape:window-width="2560"
     inkscape:window-height="1377"
     inkscape:window-x="-8"
     inkscape:window-y="-8"
     inkscape:window-maximized="1"
     inkscape:current-layer="g51"
     showguides="true">
    <sodipodi:guide
       position="2.4770832,358.67682"
       orientation="0,-1"
       id="guide42"
       inkscape:locked="false" />
    <sodipodi:guide
       position="36.025002,363.67683"
       orientation="0,-1"
       id="guide45"
       inkscape:locked="false" />
    <sodipodi:guide
       position="36.025002,379.98384"
       orientation="0,-1"
       id="guide46"
       inkscape:locked="false" />
    <sodipodi:guide
       position="36.025002,384.98384"
       orientation="0,-1"
       id="guide47"
       inkscape:locked="false" />
    <sodipodi:guide
       position="50.596958,311.82511"
       orientation="0,-1"
       id="guide54"
       inkscape:locked="false" />
    <sodipodi:guide
       position="20.653568,301.24323"
       orientation="0,-1"
       id="guide55"
       inkscape:locked="false" />
    <sodipodi:guide
       position="-1.5237608,217.58303"
       orientation="0,-1"
       id="guide56"
       inkscape:locked="false" />
    <sodipodi:guide
       position="0.15352625,108.7915"
       orientation="0,-1"
       id="guide57"
       inkscape:locked="false" />
    <sodipodi:guide
       position="16.752436,39.117634"
       orientation="0,-1"
       id="guide58"
       inkscape:locked="false" />
    <sodipodi:guide
       position="29.801548,173.0099"
       orientation="0,-1"
       id="guide59"
       inkscape:locked="false" />
  </sodipodi:namedview>
  <defs
     id="defs1">
    <inkscape:path-effect
       effect="fillet_chamfer"
       id="path-effect74"
       is_visible="true"
       lpeversion="1"
       nodesatellites_param="F,0,0,1,0,4.999695,0,1 @ F,0,0,1,0,0,0,1 @ F,0,0,1,0,1.0001839,0,1 @ F,0,0,1,0,0.36674885,0,1 @ F,0,0,1,0,0.57577572,0,1 @ F,0,0,1,0,1.250111,0,1 @ F,0,0,1,0,1.5553766,0,1 @ F,0,0,1,0,0,0,1 @ F,0,0,1,0,0,0,1 @ F,0,0,1,0,0,0,1 @ F,0,0,1,0,0,0,1 @ F,0,0,1,0,0,0,1 @ F,0,0,1,0,0,0,1 @ F,0,0,1,0,0,0,1 @ F,0,0,1,0,0,0,1 @ F,0,0,1,0,1.5553766,0,1 @ F,0,0,1,0,1.242889,0,1 @ F,0,0,1,0,0.56855403,0,1 @ F,0,0,1,0,0.33906808,0,1 @ F,0,0,1,0,1.0220105,0,1 @ F,0,0,1,0,0,0,1 @ F,0,0,1,0,4.999695,0,1 @ F,0,0,1,0,4.4014599,0,1 @ F,0,0,1,0,4.4014599,0,1 @ F,0,0,1,0,2.4861533,0,1 @ F,0,0,1,0,2.4861533,0,1 @ F,0,0,1,0,1.2556475,0,1 @ F,0,0,1,0,0.56855367,0,1 @ F,0,0,1,0,1.250111,0,1 @ F,0,0,1,0,1.250111,0,1 @ F,0,0,1,0,2.499848,0,1 @ F,0,0,1,0,0,0,1 @ F,0,0,1,0,2.4998554,0,1 @ F,0,0,1,0,6.249807,0,1 @ F,0,0,1,0,0,0,1"
       radius="0"
       unit="px"
       method="auto"
       mode="F"
       chamfer_steps="1"
       flexible="false"
       use_knot_distance="true"
       apply_no_radius="true"
       apply_with_radius="true"
       only_selected="false"
       hide_knots="false" />
    <inkscape:path-effect
       effect="fillet_chamfer"
       id="path-effect70"
       is_visible="true"
       lpeversion="1"
       nodesatellites_param="F,0,0,1,0,4.999695,0,1 @ F,0,0,1,0,0,0,1 @ F,0,0,1,0,1.0001839,0,1 @ F,0,0,1,0,0.36674885,0,1 @ F,0,0,1,0,0.57577572,0,1 @ F,0,0,1,0,1.250111,0,1 @ F,0,0,1,0,1.5553766,0,1 @ F,0,0,1,0,0,0,1 @ F,0,0,1,0,0,0,1 @ F,0,0,1,0,0,0,1 @ F,0,0,1,0,0,0,1 @ F,0,0,1,0,0,0,1 @ F,0,0,1,0,0,0,1 @ F,0,0,1,0,0,0,1 @ F,0,0,1,0,0,0,1 @ F,0,0,1,0,1.5553766,0,1 @ F,0,0,1,0,1.242889,0,1 @ F,0,0,1,0,0.56855403,0,1 @ F,0,0,1,0,0.33906808,0,1 @ F,0,0,1,0,1.0220105,0,1 @ F,0,0,1,0,0,0,1 @ F,0,0,1,0,4.999695,0,1 @ F,0,0,1,0,4.4014599,0,1 @ F,0,0,1,0,4.4014599,0,1 @ F,0,0,1,0,2.4861533,0,1 @ F,0,0,1,0,2.4861533,0,1 @ F,0,0,1,0,1.2556475,0,1 @ F,0,0,1,0,0.56855367,0,1 @ F,0,0,1,0,1.250111,0,1 @ F,0,0,1,0,1.250111,0,1 @ F,0,0,1,0,2.499848,0,1 @ F,0,0,1,0,0,0,1 @ F,0,0,1,0,2.4998554,0,1 @ F,0,0,1,0,6.249807,0,1 @ F,0,0,1,0,0,0,1"
       radius="0"
       unit="px"
       method="auto"
       mode="F"
       chamfer_steps="1"
       flexible="false"
       use_knot_distance="true"
       apply_no_radius="true"
       apply_with_radius="true"
       only_selected="false"
       hide_knots="false" />
    <inkscape:path-effect
       effect="fillet_chamfer"
       id="path-effect67"
       is_visible="true"
       lpeversion="1"
       nodesatellites_param="F,0,0,1,0,0,0,1 @ F,0,0,1,0,0,0,1 @ F,0,0,1,0,0,0,1 @ F,0,0,1,0,0,0,1 @ F,0,0,1,0,0,0,1 @ F,0,0,1,0,0,0,1 @ F,0,0,1,0,0,0,1 @ F,0,0,1,0,0,0,1 @ F,0,0,1,0,0,0,1 @ F,0,0,1,0,0,0,1 @ F,0,0,1,0,0.95265083,0,1 @ F,0,0,1,0,0,0,1 @ F,0,0,1,0,0,0,1 @ F,0,0,1,0,0,0,1 @ F,0,0,1,0,0,0,1 @ F,0,0,1,0,0,0,1 @ F,0,0,1,0,0,0,1 @ F,0,0,1,0,0,0,1 @ F,0,0,1,0,0,0,1"
       radius="0"
       unit="px"
       method="auto"
       mode="F"
       chamfer_steps="1"
       flexible="false"
       use_knot_distance="true"
       apply_no_radius="true"
       apply_with_radius="true"
       only_selected="false"
       hide_knots="false" />
    <inkscape:path-effect
       effect="fillet_chamfer"
       id="path-effect62"
       is_visible="true"
       lpeversion="1"
       nodesatellites_param="F,0,0,1,0,4.999695,0,1 @ F,0,0,1,0,0,0,1 @ F,0,0,1,0,1.0001839,0,1 @ F,0,0,1,0,0.36674885,0,1 @ F,0,0,1,0,0.57577572,0,1 @ F,0,0,1,0,1.250111,0,1 @ F,0,0,1,0,1.5553766,0,1 @ F,0,0,1,0,0,0,1 @ F,0,0,1,0,0,0,1 @ F,0,0,1,0,0,0,1 @ F,0,0,1,0,0,0,1 @ F,0,0,1,0,0,0,1 @ F,0,0,1,0,0,0,1 @ F,0,0,1,0,0,0,1 @ F,0,0,1,0,0,0,1 @ F,0,0,1,0,1.5553766,0,1 @ F,0,0,1,0,1.242889,0,1 @ F,0,0,1,0,0.56855403,0,1 @ F,0,0,1,0,0.33906808,0,1 @ F,0,0,1,0,1.0220105,0,1 @ F,0,0,1,0,0,0,1 @ F,0,0,1,0,4.999695,0,1 @ F,0,0,1,0,4.4014599,0,1 @ F,0,0,1,0,4.4014599,0,1 @ F,0,0,1,0,2.4861533,0,1 @ F,0,0,1,0,2.4861533,0,1 @ F,0,0,1,0,1.2556475,0,1 @ F,0,0,1,0,0.56855367,0,1 @ F,0,0,1,0,1.250111,0,1 @ F,0,0,1,0,1.250111,0,1 @ F,0,0,1,0,2.499848,0,1 @ F,0,0,1,0,0,0,1 @ F,0,0,1,0,2.4998554,0,1 @ F,0,0,1,0,6.249807,0,1 @ F,0,0,1,0,0,0,1"
       radius="0"
       unit="px"
       method="auto"
       mode="F"
       chamfer_steps="1"
       flexible="false"
       use_knot_distance="true"
       apply_no_radius="true"
       apply_with_radius="true"
       only_selected="false"
       hide_knots="false" />
    <inkscape:path-effect
       effect="fillet_chamfer"
       id="path-effect54"
       is_visible="true"
       lpeversion="1"
       nodesatellites_param="F,0,0,1,0,4.999695,0,1 @ F,0,0,1,0,0,0,1 @ F,0,0,1,0,1.0001839,0,1 @ F,0,0,1,0,0.36674885,0,1 @ F,0,0,1,0,0.57577572,0,1 @ F,0,0,1,0,1.250111,0,1 @ F,0,0,1,0,1.5553766,0,1 @ F,0,0,1,0,0,0,1 @ F,0,0,1,0,0,0,1 @ F,0,0,1,0,0,0,1 @ F,0,0,1,0,0,0,1 @ F,0,0,1,0,0,0,1 @ F,0,0,1,0,0,0,1 @ F,0,0,1,0,0,0,1 @ F,0,0,1,0,0,0,1 @ F,0,0,1,0,1.5553766,0,1 @ F,0,0,1,0,1.242889,0,1 @ F,0,0,1,0,0.56855403,0,1 @ F,0,0,1,0,0.33906808,0,1 @ F,0,0,1,0,1.0220105,0,1 @ F,0,0,1,0,0,0,1 @ F,0,0,1,0,4.999695,0,1 @ F,0,0,1,0,4.4014599,0,1 @ F,0,0,1,0,4.4014599,0,1 @ F,0,0,1,0,2.4861533,0,1 @ F,0,0,1,0,2.4861533,0,1 @ F,0,0,1,0,1.2556475,0,1 @ F,0,0,1,0,0.56855367,0,1 @ F,0,0,1,0,1.250111,0,1 @ F,0,0,1,0,1.250111,0,1 @ F,0,0,1,0,2.499848,0,1 @ F,0,0,1,0,0,0,1 @ F,0,0,1,0,2.4998554,0,1 @ F,0,0,1,0,6.249807,0,1 @ F,0,0,1,0,0,0,1"
       radius="0"
       unit="px"
       method="auto"
       mode="F"
       chamfer_steps="1"
       flexible="false"
       use_knot_distance="true"
       apply_no_radius="true"
       apply_with_radius="true"
       only_selected="false"
       hide_knots="false" />
    <inkscape:path-effect
       effect="fillet_chamfer"
       id="path-effect50"
       is_visible="true"
       lpeversion="1"
       nodesatellites_param="F,0,0,1,0,4.999695,0,1 @ F,0,0,1,0,0,0,1 @ F,0,0,1,0,1.0001839,0,1 @ F,0,0,1,0,0.36674885,0,1 @ F,0,0,1,0,0.57577572,0,1 @ F,0,0,1,0,1.250111,0,1 @ F,0,0,1,0,1.5553766,0,1 @ F,0,0,1,0,0,0,1 @ F,0,0,1,0,0,0,1 @ F,0,0,1,0,0,0,1 @ F,0,0,1,0,0,0,1 @ F,0,0,1,0,0,0,1 @ F,0,0,1,0,0,0,1 @ F,0,0,1,0,0,0,1 @ F,0,0,1,0,0,0,1 @ F,0,0,1,0,1.5553766,0,1 @ F,0,0,1,0,1.242889,0,1 @ F,0,0,1,0,0.56855403,0,1 @ F,0,0,1,0,0.33906808,0,1 @ F,0,0,1,0,1.0220105,0,1 @ F,0,0,1,0,0,0,1 @ F,0,0,1,0,4.999695,0,1 @ F,0,0,1,0,4.4014599,0,1 @ F,0,0,1,0,4.4014599,0,1 @ F,0,0,1,0,2.4861533,0,1 @ F,0,0,1,0,2.4861533,0,1 @ F,0,0,1,0,1.2556475,0,1 @ F,0,0,1,0,0.56855367,0,1 @ F,0,0,1,0,1.250111,0,1 @ F,0,0,1,0,1.250111,0,1 @ F,0,0,1,0,2.499848,0,1 @ F,0,0,1,0,0,0,1 @ F,0,0,1,0,2.4998554,0,1 @ F,0,0,1,0,6.249807,0,1 @ F,0,0,1,0,0,0,1"
       radius="0"
       unit="px"
       method="auto"
       mode="F"
       chamfer_steps="1"
       flexible="false"
       use_knot_distance="true"
       apply_no_radius="true"
       apply_with_radius="true"
       only_selected="false"
       hide_knots="false" />
    <inkscape:path-effect
       effect="fillet_chamfer"
       id="path-effect28"
       is_visible="true"
       lpeversion="1"
       nodesatellites_param="F,0,0,1,0,4.999695,0,1 @ F,0,0,1,0,0,0,1 @ F,0,0,1,0,1.0001839,0,1 @ F,0,0,1,0,0.36674885,0,1 @ F,0,0,1,0,0.57577572,0,1 @ F,0,0,1,0,1.250111,0,1 @ F,0,0,1,0,1.5553766,0,1 @ F,0,0,1,0,0,0,1 @ F,0,0,1,0,0,0,1 @ F,0,0,1,0,0,0,1 @ F,0,0,1,0,0,0,1 @ F,0,0,1,0,0,0,1 @ F,0,0,1,0,0,0,1 @ F,0,0,1,0,0,0,1 @ F,0,0,1,0,0,0,1 @ F,0,0,1,0,1.5553766,0,1 @ F,0,0,1,0,1.242889,0,1 @ F,0,0,1,0,0.56855403,0,1 @ F,0,0,1,0,0.33906808,0,1 @ F,0,0,1,0,1.0220105,0,1 @ F,0,0,1,0,0,0,1 @ F,0,0,1,0,4.999695,0,1 @ F,0,0,1,0,4.4014599,0,1 @ F,0,0,1,0,4.4014599,0,1 @ F,0,0,1,0,2.4861533,0,1 @ F,0,0,1,0,2.4861533,0,1 @ F,0,0,1,0,1.2556475,0,1 @ F,0,0,1,0,0.56855367,0,1 @ F,0,0,1,0,1.250111,0,1 @ F,0,0,1,0,1.250111,0,1 @ F,0,0,1,0,2.499848,0,1 @ F,0,0,1,0,0,0,1 @ F,0,0,1,0,2.4998554,0,1 @ F,0,0,1,0,6.249807,0,1 @ F,0,0,1,0,0,0,1"
       radius="0"
       unit="px"
       method="auto"
       mode="F"
       chamfer_steps="1"
       flexible="false"
       use_knot_distance="true"
       apply_no_radius="true"
       apply_with_radius="true"
       only_selected="false"
       hide_knots="false" />
    <inkscape:path-effect
       effect="fillet_chamfer"
       id="path-effect27"
       is_visible="true"
       lpeversion="1"
       nodesatellites_param="F,0,0,1,0,4,0,1 @ F,0,0,1,0,4,0,1 @ F,0,0,1,0,4,0,1 @ F,0,0,1,0,4,0,1 @ F,0,0,1,0,4,0,1 @ F,0,0,1,0,4,0,1 @ F,0,0,1,0,4,0,1 @ F,0,0,1,0,4,0,1 @ F,0,0,1,0,4,0,1 @ F,0,0,1,0,4,0,1 @ F,0,0,1,0,4,0,1 @ F,0,0,1,0,4,0,1 @ F,0,0,1,0,4,0,1 @ F,0,0,1,0,4,0,1 @ F,0,0,1,0,4,0,1 @ F,0,0,1,0,4,0,1 @ F,0,0,1,0,4,0,1 @ F,0,0,1,0,4,0,1 @ F,0,0,1,0,4,0,1 @ F,0,0,1,0,4,0,1 @ F,0,0,1,0,4,0,1 @ F,0,0,1,0,4,0,1 @ F,0,0,1,0,4,0,1 @ F,0,0,1,0,4,0,1 @ F,0,0,1,0,4,0,1 @ F,0,0,1,0,4,0,1 @ F,0,0,1,0,4,0,1 @ F,0,0,1,0,4,0,1 @ F,0,0,1,0,4,0,1 @ F,0,0,1,0,4,0,1 @ F,0,0,1,0,4,0,1 @ F,0,0,1,0,4,0,1 @ F,0,0,1,0,4,0,1 @ F,0,0,1,0,4,0,1"
       radius="4"
       unit="mm"
       method="auto"
       mode="F"
       chamfer_steps="1"
       flexible="false"
       use_knot_distance="true"
       apply_no_radius="true"
       apply_with_radius="true"
       only_selected="false"
       hide_knots="false" />
    <inkscape:path-effect
       effect="fillet_chamfer"
       id="path-effect28-7"
       is_visible="true"
       lpeversion="1"
       nodesatellites_param="F,0,0,1,0,4.999695,0,1 @ F,0,0,1,0,0,0,1 @ F,0,0,1,0,1.0001839,0,1 @ F,0,0,1,0,0.36674885,0,1 @ F,0,0,1,0,0.57577572,0,1 @ F,0,0,1,0,1.250111,0,1 @ F,0,0,1,0,1.5553766,0,1 @ F,0,0,1,0,0,0,1 @ F,0,0,1,0,0,0,1 @ F,0,0,1,0,0,0,1 @ F,0,0,1,0,0,0,1 @ F,0,0,1,0,0,0,1 @ F,0,0,1,0,0,0,1 @ F,0,0,1,0,0,0,1 @ F,0,0,1,0,0,0,1 @ F,0,0,1,0,1.5553766,0,1 @ F,0,0,1,0,1.242889,0,1 @ F,0,0,1,0,0.56855403,0,1 @ F,0,0,1,0,0.33906808,0,1 @ F,0,0,1,0,1.0220105,0,1 @ F,0,0,1,0,0,0,1 @ F,0,0,1,0,4.999695,0,1 @ F,0,0,1,0,4.4014599,0,1 @ F,0,0,1,0,4.4014599,0,1 @ F,0,0,1,0,2.4861533,0,1 @ F,0,0,1,0,2.4861533,0,1 @ F,0,0,1,0,1.2556475,0,1 @ F,0,0,1,0,0.56855367,0,1 @ F,0,0,1,0,1.250111,0,1 @ F,0,0,1,0,1.250111,0,1 @ F,0,0,1,0,2.499848,0,1 @ F,0,0,1,0,0,0,1 @ F,0,0,1,0,2.4998554,0,1 @ F,0,0,1,0,6.249807,0,1 @ F,0,0,1,0,0,0,1"
       radius="0"
       unit="px"
       method="auto"
       mode="F"
       chamfer_steps="1"
       flexible="false"
       use_knot_distance="true"
       apply_no_radius="true"
       apply_with_radius="true"
       only_selected="false"
       hide_knots="false" />
    <inkscape:path-effect
       effect="fillet_chamfer"
       id="path-effect50-4"
       is_visible="true"
       lpeversion="1"
       nodesatellites_param="F,0,0,1,0,4.999695,0,1 @ F,0,0,1,0,0,0,1 @ F,0,0,1,0,1.0001839,0,1 @ F,0,0,1,0,0.36674885,0,1 @ F,0,0,1,0,0.57577572,0,1 @ F,0,0,1,0,1.250111,0,1 @ F,0,0,1,0,1.5553766,0,1 @ F,0,0,1,0,0,0,1 @ F,0,0,1,0,0,0,1 @ F,0,0,1,0,0,0,1 @ F,0,0,1,0,0,0,1 @ F,0,0,1,0,0,0,1 @ F,0,0,1,0,0,0,1 @ F,0,0,1,0,0,0,1 @ F,0,0,1,0,0,0,1 @ F,0,0,1,0,1.5553766,0,1 @ F,0,0,1,0,1.242889,0,1 @ F,0,0,1,0,0.56855403,0,1 @ F,0,0,1,0,0.33906808,0,1 @ F,0,0,1,0,1.0220105,0,1 @ F,0,0,1,0,0,0,1 @ F,0,0,1,0,4.999695,0,1 @ F,0,0,1,0,4.4014599,0,1 @ F,0,0,1,0,4.4014599,0,1 @ F,0,0,1,0,2.4861533,0,1 @ F,0,0,1,0,2.4861533,0,1 @ F,0,0,1,0,1.2556475,0,1 @ F,0,0,1,0,0.56855367,0,1 @ F,0,0,1,0,1.250111,0,1 @ F,0,0,1,0,1.250111,0,1 @ F,0,0,1,0,2.499848,0,1 @ F,0,0,1,0,0,0,1 @ F,0,0,1,0,2.4998554,0,1 @ F,0,0,1,0,6.249807,0,1 @ F,0,0,1,0,0,0,1"
       radius="0"
       unit="px"
       method="auto"
       mode="F"
       chamfer_steps="1"
       flexible="false"
       use_knot_distance="true"
       apply_no_radius="true"
       apply_with_radius="true"
       only_selected="false"
       hide_knots="false" />
  </defs>
  <g
     inkscape:label="Laag 1"
     inkscape:groupmode="layer"
     id="layer1"
     transform="translate(-9.0200577,-45.16717)">
    <g
       id="g51"
       transform="translate(0,-0.43472236)">
      <g
         id="g67">
        <g
           id="g48"
           transform="translate(-34.425003,28.640756)">
          <circle
             style="fill:none;stroke:#000000;stroke-width:0;stroke-dasharray:none"
             id="path47"
             cx="56.598568"
             cy="30.114643"
             r="13.153507" />
          <circle
             style="fill:none;stroke:#000000;stroke-width:0;stroke-dasharray:none"
             id="path48"
             cx="56.598568"
             cy="30.114639"
             r="8.1535025" />
        </g>
        <path
           d="m 7.8201945,63.226632 0,2.029089 a 0.26652722,0.26652722 14.921336 0 0 0.4977116,0.132629 l 1.0576652,-1.843602 a 0.6332171,0.6332171 149.92138 0 1 0.5492504,-0.318115 l 3.2484203,5e-6 a 0.57577668,0.57577668 45.000048 0 1 0.575776,0.575777 l 0,7.603511 a 1.2501095,1.2501095 135.00003 0 1 -1.250111,1.25011 l -3.1233359,-4e-6 a 1.5553748,1.5553748 135.00003 0 0 -1.5553766,1.555375 l -2e-7,92.661413 h 5.4999227 v 2.8 H 7.8201943 l 5e-7,105.99152 h 5.4999222 v 2.79999 H 7.8201943 l 4e-7,92.6609 a 1.5553792,1.5553792 45.000048 0 0 1.5553766,1.55538 l 3.1233357,10e-6 a 1.2428911,1.2428911 45.000048 0 1 1.242889,1.24289 l 0,7.61796 a 0.56855267,0.56855267 135.00007 0 1 -0.568554,0.56855 l -3.276101,-1e-5 a 0.58463446,0.58463446 30.11241 0 1 -0.5074493,-0.2943 l -1.0619665,-1.85616 a 0.27170029,0.27170029 165.11234 0 0 -0.5075306,0.13493 l -10e-8,2.01553 0,5.1e-4 a 4.999695,4.999695 45 0 0 4.9996955,4.9997 h 6.654 9.944808 a 4.4014599,4.4014599 135 0 0 4.40146,-4.40146 v -1.64159 a 2.4861533,2.4861533 45 0 0 -2.486153,-2.48615 l -0.02739,0 a 2.4861533,2.4861533 135 0 0 -2.486153,2.48615 1.1541575,1.1541575 140.28979 0 1 -1.255647,1.04284 H 19.388594 A 0.56855367,0.56855367 45 0 1 18.82004,381.54146 V 64.476743 a 1.250111,1.250111 135 0 1 1.250111,-1.250111 h 7.500201 a 1.250111,1.250111 45 0 1 1.250111,1.250111 v 8.837686 a 2.499848,2.499848 45 0 0 2.499848,2.499848 2.4998512,2.4998512 134.9999 0 0 2.499847,-2.499855 v -8.837678 a 6.249807,6.249807 45 0 0 -6.249807,-6.249807 l -14.750462,0 a 4.999695,4.999695 135 0 0 -4.9996945,4.999695 z"
           style="fill:none;stroke:#000000;stroke-width:0"
           id="path49"
           inkscape:path-effect="#path-effect50"
           inkscape:original-d="m 7.8201945,58.226937 v 4.999695 3.029273 l 1.7378784,-3.029273 4.1909451,7e-6 v 9.429398 l -5.9288235,-7e-6 -2e-7,94.21679 h 5.4999227 v 2.8 H 7.8201943 l 5e-7,105.99152 h 5.4999222 v 2.79999 H 7.8201943 l 4e-7,94.21628 5.9216013,10e-6 v 9.4294 l -4.1837231,-1e-5 -1.7378782,-3.03754 -2e-7,3.03754 v 5.00021 H 23.87535 33.820158 v -8.5292 h -4.999695 v 3.52899 H 18.82004 V 63.226632 h 10.000423 v 12.587645 h 2.499848 2.499847 v -17.58734 h -6.249807 z"
           sodipodi:nodetypes="cccccccccccccccccccccccccccccccccccc"
           transform="translate(1.353389,15.26947)" />
        <path
           d="m 29.673577,91.956686 c -3.046952,0 -5.499922,2.519543 -5.499922,5.649267 v 0.380339 h 5.499922 l 10e-7,2.799998 h -5.499923 l -1e-6,259.67581 h 5.499922 l 0,2.79999 h -5.499922 v 0.38034 c 0,3.12972 2.45297,5.64927 5.499922,5.64927 3.046951,0 5.499923,-2.51955 5.499923,-5.64927 l -10e-7,-131.61824 h -5.499922 v -2.80001 h 5.499923 l 10e-7,-131.618227 c 0,-3.129724 -2.452972,-5.649267 -5.499923,-5.649267 z"
           style="fill:none;stroke:#000000;stroke-width:0"
           id="path59"
           sodipodi:nodetypes="ssccccccccsssccccss" />
      </g>
      <path
         d="m 124.85204,184.07322 5.44204,-0.79563 -0.81426,-5.40581 H 118.3555 l -8.37158,-1.1e-4 c -3.3601,0 -6.06526,2.70516 -6.06526,6.06527 v 211.97672 c 0,3.36011 2.70516,6.06527 6.06526,6.06527 h 33.55144 1.25367 l 17.44726,1.9e-4 a 0.82016122,0.82016122 130.72662 0 0 0.81106,-0.94206 l 0,0 -12.19306,-81.18419 -3.93943,-26.22872 -5.44204,0.79561 -0.41683,-2.76879 5.44204,-0.79561 -15.78712,-104.80897 -5.44204,0.79563 z"
         style="fill:none;stroke:#000000;stroke-width:0"
         id="path67"
         sodipodi:nodetypes="cccccssscccccccccccc"
         inkscape:path-effect="#path-effect67"
         inkscape:original-d="m 124.85204,184.07322 5.44204,-0.79563 -0.81426,-5.40581 H 118.3555 l -8.37158,-1.1e-4 c -3.3601,0 -6.06526,2.70516 -6.06526,6.06527 v 211.97672 c 0,3.36011 2.70516,6.06527 6.06526,6.06527 h 33.55144 1.25367 l 18.39991,2e-4 -0.14159,-0.94207 -12.19306,-81.18419 -3.93943,-26.22872 -5.44204,0.79561 -0.41683,-2.76879 5.44204,-0.79561 -15.78712,-104.80897 -5.44204,0.79563 z"
         transform="translate(-38.1,0.40057423)" />
      <g
         id="g73"
         transform="translate(28.045845)">
        <g
           id="g72"
           transform="translate(-34.425003,28.640756)">
          <circle
             style="fill:none;stroke:#000000;stroke-width:0;stroke-dasharray:none"
             id="circle71"
             cx="56.598568"
             cy="30.114643"
             r="13.153507" />
          <circle
             style="fill:none;stroke:#000000;stroke-width:0;stroke-dasharray:none"
             id="circle72"
             cx="56.598568"
             cy="30.114639"
             r="8.1535025" />
        </g>
        <path
           d="m 7.8201945,63.226632 0,2.029089 a 0.26652722,0.26652722 14.921336 0 0 0.4977116,0.132629 l 1.0576652,-1.843602 a 0.6332171,0.6332171 149.92138 0 1 0.5492504,-0.318115 l 3.2484203,5e-6 a 0.57577668,0.57577668 45.000048 0 1 0.575776,0.575777 l 0,7.603511 a 1.2501095,1.2501095 135.00003 0 1 -1.250111,1.25011 l -3.1233359,-4e-6 a 1.5553748,1.5553748 135.00003 0 0 -1.5553766,1.555375 l -2e-7,92.661413 h 5.4999227 v 2.8 H 7.8201943 l 5e-7,105.99152 h 5.4999222 v 2.79999 H 7.8201943 l 4e-7,92.6609 a 1.5553792,1.5553792 45.000048 0 0 1.5553766,1.55538 l 3.1233357,10e-6 a 1.2428911,1.2428911 45.000048 0 1 1.242889,1.24289 l 0,7.61796 a 0.56855267,0.56855267 135.00007 0 1 -0.568554,0.56855 l -3.276101,-1e-5 a 0.58463446,0.58463446 30.11241 0 1 -0.5074493,-0.2943 l -1.0619665,-1.85616 a 0.27170029,0.27170029 165.11234 0 0 -0.5075306,0.13493 l -10e-8,2.01553 0,5.1e-4 a 4.999695,4.999695 45 0 0 4.9996955,4.9997 h 6.654 9.944808 a 4.4014599,4.4014599 135 0 0 4.40146,-4.40146 v -1.64159 a 2.4861533,2.4861533 45 0 0 -2.486153,-2.48615 l -0.02739,0 a 2.4861533,2.4861533 135 0 0 -2.486153,2.48615 1.1541575,1.1541575 140.28979 0 1 -1.255647,1.04284 H 19.388594 A 0.56855367,0.56855367 45 0 1 18.82004,381.54146 V 64.476743 a 1.250111,1.250111 135 0 1 1.250111,-1.250111 h 7.500201 a 1.250111,1.250111 45 0 1 1.250111,1.250111 v 8.837686 a 2.499848,2.499848 45 0 0 2.499848,2.499848 2.4998512,2.4998512 134.9999 0 0 2.499847,-2.499855 v -8.837678 a 6.249807,6.249807 45 0 0 -6.249807,-6.249807 l -14.750462,0 a 4.999695,4.999695 135 0 0 -4.9996945,4.999695 z"
           style="fill:none;stroke:#000000;stroke-width:0"
           id="path72"
           inkscape:path-effect="#path-effect74"
           inkscape:original-d="m 7.8201945,58.226937 v 4.999695 3.029273 l 1.7378784,-3.029273 4.1909451,7e-6 v 9.429398 l -5.9288235,-7e-6 -2e-7,94.21679 h 5.4999227 v 2.8 H 7.8201943 l 5e-7,105.99152 h 5.4999222 v 2.79999 H 7.8201943 l 4e-7,94.21628 5.9216013,10e-6 v 9.4294 l -4.1837231,-1e-5 -1.7378782,-3.03754 -2e-7,3.03754 v 5.00021 H 23.87535 33.820158 v -8.5292 h -4.999695 v 3.52899 H 18.82004 V 63.226632 h 10.000423 v 12.587645 h 2.499848 2.499847 v -17.58734 h -6.249807 z"
           sodipodi:nodetypes="cccccccccccccccccccccccccccccccccccc"
           transform="translate(1.353389,15.26947)" />
        <path
           d="m 29.673577,91.956686 c -3.046952,0 -5.499922,2.519543 -5.499922,5.649267 v 0.380339 h 5.499922 l 10e-7,2.799998 h -5.499923 l -1e-6,259.67581 h 5.499922 v 2.79999 h -5.499922 v 0.38034 c 0,3.12972 2.45297,5.64927 5.499922,5.64927 3.046951,0 5.499923,-2.51955 5.499923,-5.64927 l -10e-7,-131.61824 h -5.499922 v -2.80001 h 5.499923 l 10e-7,-131.618227 c 0,-3.129724 -2.452972,-5.649267 -5.499923,-5.649267 z"
           style="fill:none;stroke:#000000;stroke-width:0"
           id="path73"
           sodipodi:nodetypes="ssccccccccsssccccss" />
      </g>
      <text
         xml:space="preserve"
         style="font-size:3.175px;fill:none;stroke:#000000;stroke-width:0;stroke-dasharray:none"
         x="67.140099"
         y="176.03897"
         id="text74"><tspan
           sodipodi:role="line"
           id="tspan74"
           style="stroke-width:0"
           x="67.140099"
           y="176.03897">3.2mm thickness</tspan></text>
    </g>
  </g>
</svg>
